# xmcd
#
# Track frame offsets:
#	150
#	15266
#	28863
#	46238
#	67094
#	84492
#	101551
#	115401
#	129390
#	148393
#	162682
#	163132
#
# Disc length: 2463 seconds
#
# Revision: 1
# Processed by: cddbd v1.5.2PL0 Copyright (c) Steve Scherf et al.
# Submitted via: audiograbber 1.83.01
#
DISCID=a9099d0c
DTITLE=Tina Vukov - Tuga dolazi kasnije
DYEAR=2006
DGENRE=
TTITLE0=Noc
TTITLE1=Il treno per genova
TTITLE2=Troje
TTITLE3=Vjeruj mi
TTITLE4=Meni zalost ne stoji
TTITLE5=Kao pijesak medu prstima
TTITLE6=Moj otac i ja
TTITLE7=Vracam se (duet Arsen Dedic)
TTITLE8=Mi smo plesaleTrack  9
TTITLE9=Tuga dolazi kasnije
TTITLE10=Sadness comes anyway
TTITLE11=Rain
EXTD=
EXTT0=
EXTT1=
EXTT2=
EXTT3=
EXTT4=
EXTT5=
EXTT6=
EXTT7=
EXTT8=
EXTT9=
EXTT10=
EXTT11=
PLAYORDER=
